<mxfile host="app.diagrams.net" agent="Mozilla/5.0 (Windows NT 10.0; Win64; x64) AppleWebKit/537.36 (KHTML, like Gecko) Chrome/133.0.0.0 Safari/537.36" version="25.0.1">
  <diagram name="Page-1" id="9361dd3d-8414-5efd-6122-117bd74ce7a7">
    <mxGraphModel dx="1631" dy="1282" grid="1" gridSize="10" guides="1" tooltips="1" connect="1" arrows="1" fold="1" page="0" pageScale="1.5" pageWidth="826" pageHeight="1169" background="none" math="0" shadow="0">
      <root>
        <mxCell id="0" />
        <mxCell id="1" parent="0" />
        <mxCell id="20" value="" style="fillColor=#CCD5EB" parent="1" vertex="1">
          <mxGeometry x="130" y="770" width="1250" height="390" as="geometry" />
        </mxCell>
        <mxCell id="2" value="" style="fillColor=#CC4125;strokeColor=#660000" parent="1" vertex="1">
          <mxGeometry x="147.5" y="140" width="10" height="80" as="geometry" />
        </mxCell>
        <mxCell id="4" value="Front Office" style="shadow=1;fillColor=#A2C4C9;strokeColor=none" parent="1" vertex="1">
          <mxGeometry x="100" y="60" width="105" height="50" as="geometry" />
        </mxCell>
        <mxCell id="6" value="" style="fillColor=#CC4125;strokeColor=#660000" parent="1" vertex="1">
          <mxGeometry x="457.5" y="200" width="10" height="30" as="geometry" />
        </mxCell>
        <mxCell id="7" value="Middle Office" style="shadow=1;fillColor=#A2C4C9;strokeColor=none" parent="1" vertex="1">
          <mxGeometry x="410" y="60" width="105" height="50" as="geometry" />
        </mxCell>
        <mxCell id="9" value="Inform ISIN is called" style="edgeStyle=none;verticalLabelPosition=top;verticalAlign=bottom" parent="1" edge="1">
          <mxGeometry width="100" height="100" as="geometry">
            <mxPoint x="157.5" y="200" as="sourcePoint" />
            <mxPoint x="460" y="200.5" as="targetPoint" />
            <mxPoint x="-29" as="offset" />
          </mxGeometry>
        </mxCell>
        <mxCell id="15" value="NIX" style="shadow=1;fillColor=#A2C4C9;strokeColor=none" parent="1" vertex="1">
          <mxGeometry x="570.0039506172839" y="59.99999999999997" width="105" height="50" as="geometry" />
        </mxCell>
        <mxCell id="19" value="Submit status change in NIX&#xa;to &quot;Called&quot;" style="edgeStyle=elbowEdgeStyle;elbow=vertical;verticalLabelPosition=top;verticalAlign=bottom" parent="1" source="6" edge="1">
          <mxGeometry x="350" y="290" width="100" height="100" as="geometry">
            <mxPoint x="445" y="390" as="sourcePoint" />
            <mxPoint x="615" y="230" as="targetPoint" />
            <Array as="points">
              <mxPoint x="565" y="230" />
            </Array>
          </mxGeometry>
        </mxCell>
        <mxCell id="22" value="ESM" style="shadow=1;fillColor=#A2C4C9;strokeColor=none" parent="1" vertex="1">
          <mxGeometry x="725" y="60" width="105" height="50" as="geometry" />
        </mxCell>
        <mxCell id="24" value="Asset Control" style="shadow=1;fillColor=#A2C4C9;strokeColor=none" parent="1" vertex="1">
          <mxGeometry x="1045" y="60" width="105" height="50" as="geometry" />
        </mxCell>
        <mxCell id="30" value="Corporate Actions" style="shadow=1;fillColor=#A2C4C9;strokeColor=none" parent="1" vertex="1">
          <mxGeometry x="1180" y="60" width="105" height="50" as="geometry" />
        </mxCell>
        <mxCell id="64" value="TSA Bonds" style="shadow=1;fillColor=#A2C4C9;strokeColor=none" parent="1" vertex="1">
          <mxGeometry x="1320" y="60" width="105" height="50" as="geometry" />
        </mxCell>
        <mxCell id="65" value="" style="edgeStyle=none;endArrow=none;dashed=1" parent="1" source="iOA3DIFbuAMESOnTib9M-123" edge="1">
          <mxGeometry x="1174.0711805555559" y="210" width="100" height="100" as="geometry">
            <mxPoint x="1247.5" y="115" as="sourcePoint" />
            <mxPoint x="1372" y="540" as="targetPoint" />
          </mxGeometry>
        </mxCell>
        <mxCell id="71" value="Bond Early Call Current Process" style="rounded=1;fontStyle=1;fillColor=#FFD966;strokeColor=none;fontSize=19;" parent="1" vertex="1">
          <mxGeometry x="108.06" y="-40" width="351.94" height="60" as="geometry" />
        </mxCell>
        <mxCell id="74" value="Handle errors from Gimq" style="fillColor=#BFC8DB" parent="1" vertex="1">
          <mxGeometry x="180" y="985" width="310" height="60.55555555555554" as="geometry" />
        </mxCell>
        <mxCell id="75" value="ref" style="rounded=1;fontStyle=1;fillColor=#FFD966;strokeColor=none" parent="1" vertex="1">
          <mxGeometry x="186.25" y="992.8935185185186" width="53.75" height="25" as="geometry" />
        </mxCell>
        <mxCell id="76" value="" style="align=left;fillColor=#BFC8DB" parent="1" vertex="1">
          <mxGeometry x="179.99999999999997" y="1059.7222222222222" width="1201.1944444444443" height="60.55555555555554" as="geometry" />
        </mxCell>
        <mxCell id="77" value="ref" style="rounded=1;fontStyle=1;fillColor=#FFD966;strokeColor=none" parent="1" vertex="1">
          <mxGeometry x="186.24999999999997" y="1067.6157407407409" width="53.75" height="25" as="geometry" />
        </mxCell>
        <mxCell id="78" value="Request all changes" style="text;align=left" parent="1" vertex="1">
          <mxGeometry x="258.05555555555554" y="1080.1157407407409" width="351.80555555555554" height="26" as="geometry" />
        </mxCell>
        <mxCell id="iOA3DIFbuAMESOnTib9M-90" value="Auto Update ESM" style="edgeStyle=elbowEdgeStyle;elbow=vertical;verticalLabelPosition=top;verticalAlign=bottom;exitX=1;exitY=0.5;exitDx=0;exitDy=0;" edge="1" parent="1" source="iOA3DIFbuAMESOnTib9M-102">
          <mxGeometry x="350" y="290" width="100" height="100" as="geometry">
            <mxPoint x="604.78" y="244.41" as="sourcePoint" />
            <mxPoint x="774.78" y="244.41" as="targetPoint" />
            <Array as="points">
              <mxPoint x="721.78" y="244.41" />
            </Array>
          </mxGeometry>
        </mxCell>
        <mxCell id="iOA3DIFbuAMESOnTib9M-92" value="DataOps" style="shadow=1;fillColor=#A2C4C9;strokeColor=none" vertex="1" parent="1">
          <mxGeometry x="885" y="60" width="105" height="50" as="geometry" />
        </mxCell>
        <mxCell id="iOA3DIFbuAMESOnTib9M-94" value="Notify DataOps of status update" style="edgeStyle=elbowEdgeStyle;elbow=vertical;verticalLabelPosition=top;verticalAlign=bottom;exitX=0.75;exitY=1;exitDx=0;exitDy=0;" edge="1" parent="1" source="iOA3DIFbuAMESOnTib9M-102">
          <mxGeometry width="100" height="100" as="geometry">
            <mxPoint x="608.75" y="270" as="sourcePoint" />
            <mxPoint x="935" y="270" as="targetPoint" />
            <Array as="points" />
            <mxPoint as="offset" />
          </mxGeometry>
        </mxCell>
        <mxCell id="iOA3DIFbuAMESOnTib9M-98" value="" style="fillColor=#CC4125;strokeColor=#660000" vertex="1" parent="1">
          <mxGeometry x="932.5" y="270" width="10" height="40" as="geometry" />
        </mxCell>
        <mxCell id="iOA3DIFbuAMESOnTib9M-102" value="" style="fillColor=#CC4125;strokeColor=#660000" vertex="1" parent="1">
          <mxGeometry x="617.5" y="230" width="10" height="40" as="geometry" />
        </mxCell>
        <mxCell id="iOA3DIFbuAMESOnTib9M-105" value="DataOps manual update &#xa;Asset Control status" style="edgeStyle=elbowEdgeStyle;elbow=vertical;verticalLabelPosition=top;verticalAlign=bottom" edge="1" parent="1">
          <mxGeometry x="350" y="290" width="100" height="100" as="geometry">
            <mxPoint x="932.5" y="310" as="sourcePoint" />
            <mxPoint x="1095" y="310" as="targetPoint" />
            <Array as="points">
              <mxPoint x="1049.5" y="310" />
            </Array>
          </mxGeometry>
        </mxCell>
        <mxCell id="iOA3DIFbuAMESOnTib9M-106" value="" style="edgeStyle=none;endArrow=none;dashed=1" edge="1" parent="1">
          <mxGeometry x="376.5711805555559" y="339.6971450617284" width="100" height="100" as="geometry">
            <mxPoint x="1096.91" y="110" as="sourcePoint" />
            <mxPoint x="1097" y="530" as="targetPoint" />
          </mxGeometry>
        </mxCell>
        <mxCell id="iOA3DIFbuAMESOnTib9M-107" value="TSA" style="shadow=1;fillColor=#A2C4C9;strokeColor=none" vertex="1" parent="1">
          <mxGeometry x="250" y="60" width="105" height="50" as="geometry" />
        </mxCell>
        <mxCell id="iOA3DIFbuAMESOnTib9M-109" value="TCW" style="shadow=1;fillColor=#A2C4C9;strokeColor=none" vertex="1" parent="1">
          <mxGeometry x="1460" y="60" width="105" height="50" as="geometry" />
        </mxCell>
        <mxCell id="iOA3DIFbuAMESOnTib9M-110" value="TMS" style="shadow=1;fillColor=#A2C4C9;strokeColor=none" vertex="1" parent="1">
          <mxGeometry x="1600" y="60" width="105" height="50" as="geometry" />
        </mxCell>
        <mxCell id="iOA3DIFbuAMESOnTib9M-111" value="Inform ISIN is called " style="edgeStyle=none;verticalLabelPosition=top;verticalAlign=bottom" edge="1" parent="1">
          <mxGeometry width="100" height="100" as="geometry">
            <mxPoint x="150" y="141" as="sourcePoint" />
            <mxPoint x="300" y="141" as="targetPoint" />
            <mxPoint x="-6" as="offset" />
          </mxGeometry>
        </mxCell>
        <mxCell id="iOA3DIFbuAMESOnTib9M-113" value="" style="fillColor=#CC4125;strokeColor=#660000" vertex="1" parent="1">
          <mxGeometry x="297.5" y="140" width="10" height="20" as="geometry" />
        </mxCell>
        <mxCell id="iOA3DIFbuAMESOnTib9M-115" value="Mark Pricing Rep as Called (update End Date to be same as Effective call date)" style="edgeStyle=none;verticalLabelPosition=top;verticalAlign=bottom" edge="1" parent="1">
          <mxGeometry width="100" height="100" as="geometry">
            <mxPoint x="307.5" y="160" as="sourcePoint" />
            <mxPoint x="1653.5294117647059" y="160" as="targetPoint" />
            <mxPoint x="-6" as="offset" />
          </mxGeometry>
        </mxCell>
        <mxCell id="iOA3DIFbuAMESOnTib9M-116" value="" style="edgeStyle=none;endArrow=none;dashed=1" edge="1" parent="1">
          <mxGeometry x="1174.0711805555559" y="210" width="100" height="100" as="geometry">
            <mxPoint x="1651.91" y="110" as="sourcePoint" />
            <mxPoint x="1651.91" y="540" as="targetPoint" />
          </mxGeometry>
        </mxCell>
        <mxCell id="iOA3DIFbuAMESOnTib9M-117" value="" style="edgeStyle=none;endArrow=none;dashed=1" edge="1" parent="1">
          <mxGeometry x="1174.0711805555559" y="210" width="100" height="100" as="geometry">
            <mxPoint x="1511.91" y="110" as="sourcePoint" />
            <mxPoint x="1511.91" y="540" as="targetPoint" />
          </mxGeometry>
        </mxCell>
        <mxCell id="iOA3DIFbuAMESOnTib9M-118" value="Coporate Actions&amp;nbsp;&lt;div&gt;monitors AC for maturity&lt;/div&gt;" style="endArrow=none;dashed=1;html=1;dashPattern=1 3;strokeWidth=2;rounded=0;" edge="1" parent="1">
          <mxGeometry y="20" width="50" height="50" relative="1" as="geometry">
            <mxPoint x="1090" y="310" as="sourcePoint" />
            <mxPoint x="1230" y="310" as="targetPoint" />
            <mxPoint x="-1" as="offset" />
          </mxGeometry>
        </mxCell>
        <mxCell id="iOA3DIFbuAMESOnTib9M-120" value="" style="edgeStyle=none;endArrow=none;dashed=1" edge="1" parent="1">
          <mxGeometry x="1174.0711805555559" y="210" width="100" height="100" as="geometry">
            <mxPoint x="1231.91" y="110" as="sourcePoint" />
            <mxPoint x="1231.91" y="540" as="targetPoint" />
          </mxGeometry>
        </mxCell>
        <mxCell id="iOA3DIFbuAMESOnTib9M-121" value="" style="fillColor=#CC4125;strokeColor=#660000" vertex="1" parent="1">
          <mxGeometry x="1227.5" y="310" width="10" height="40" as="geometry" />
        </mxCell>
        <mxCell id="iOA3DIFbuAMESOnTib9M-122" value="Informs TSA Bonds &#xa;redemption needed" style="edgeStyle=elbowEdgeStyle;elbow=vertical;verticalLabelPosition=top;verticalAlign=bottom" edge="1" parent="1">
          <mxGeometry x="350" y="290" width="100" height="100" as="geometry">
            <mxPoint x="1227.5" y="350" as="sourcePoint" />
            <mxPoint x="1370" y="350" as="targetPoint" />
            <Array as="points">
              <mxPoint x="1344.5" y="350" />
            </Array>
          </mxGeometry>
        </mxCell>
        <mxCell id="iOA3DIFbuAMESOnTib9M-124" value="" style="edgeStyle=none;endArrow=none;dashed=1" edge="1" parent="1" source="64" target="iOA3DIFbuAMESOnTib9M-123">
          <mxGeometry x="1174.0711805555559" y="210" width="100" height="100" as="geometry">
            <mxPoint x="1372" y="110" as="sourcePoint" />
            <mxPoint x="1372" y="540" as="targetPoint" />
          </mxGeometry>
        </mxCell>
        <mxCell id="iOA3DIFbuAMESOnTib9M-123" value="" style="fillColor=#CC4125;strokeColor=#660000" vertex="1" parent="1">
          <mxGeometry x="1367.5" y="350" width="10" height="40" as="geometry" />
        </mxCell>
        <mxCell id="iOA3DIFbuAMESOnTib9M-125" value="TSA Bonds Manually books trade to redeem position" style="edgeStyle=elbowEdgeStyle;elbow=vertical;verticalLabelPosition=top;verticalAlign=bottom" edge="1" parent="1">
          <mxGeometry width="100" height="100" as="geometry">
            <mxPoint x="1367.5" y="390" as="sourcePoint" />
            <mxPoint x="1650" y="390" as="targetPoint" />
            <Array as="points">
              <mxPoint x="1484.5" y="390" />
            </Array>
            <mxPoint x="11" as="offset" />
          </mxGeometry>
        </mxCell>
        <mxCell id="iOA3DIFbuAMESOnTib9M-126" value="" style="edgeStyle=none;endArrow=none;dashed=1" edge="1" parent="1">
          <mxGeometry x="1174.0711805555559" y="210" width="100" height="100" as="geometry">
            <mxPoint x="151.90999999999997" y="110" as="sourcePoint" />
            <mxPoint x="151.90999999999997" y="540" as="targetPoint" />
          </mxGeometry>
        </mxCell>
        <mxCell id="iOA3DIFbuAMESOnTib9M-127" value="" style="edgeStyle=none;endArrow=none;dashed=1" edge="1" parent="1">
          <mxGeometry x="1174.0711805555559" y="210" width="100" height="100" as="geometry">
            <mxPoint x="301.90999999999997" y="115" as="sourcePoint" />
            <mxPoint x="301.90999999999997" y="545" as="targetPoint" />
          </mxGeometry>
        </mxCell>
        <mxCell id="iOA3DIFbuAMESOnTib9M-128" value="" style="edgeStyle=none;endArrow=none;dashed=1" edge="1" parent="1">
          <mxGeometry x="1174.0711805555559" y="210" width="100" height="100" as="geometry">
            <mxPoint x="621.91" y="110" as="sourcePoint" />
            <mxPoint x="621.91" y="540" as="targetPoint" />
          </mxGeometry>
        </mxCell>
        <mxCell id="iOA3DIFbuAMESOnTib9M-129" value="" style="edgeStyle=none;endArrow=none;dashed=1" edge="1" parent="1">
          <mxGeometry x="1174.0711805555559" y="210" width="100" height="100" as="geometry">
            <mxPoint x="461.90999999999997" y="110" as="sourcePoint" />
            <mxPoint x="461.90999999999997" y="540" as="targetPoint" />
          </mxGeometry>
        </mxCell>
        <mxCell id="iOA3DIFbuAMESOnTib9M-130" value="" style="edgeStyle=none;endArrow=none;dashed=1" edge="1" parent="1">
          <mxGeometry x="1174.0711805555559" y="210" width="100" height="100" as="geometry">
            <mxPoint x="780.01" y="110" as="sourcePoint" />
            <mxPoint x="780.01" y="540" as="targetPoint" />
          </mxGeometry>
        </mxCell>
        <mxCell id="iOA3DIFbuAMESOnTib9M-131" value="" style="edgeStyle=none;endArrow=none;dashed=1" edge="1" parent="1">
          <mxGeometry x="1174.0711805555559" y="210" width="100" height="100" as="geometry">
            <mxPoint x="936.91" y="115" as="sourcePoint" />
            <mxPoint x="936.91" y="545" as="targetPoint" />
          </mxGeometry>
        </mxCell>
      </root>
    </mxGraphModel>
  </diagram>
</mxfile>
